<svg preserveAspectRatio="none" overflow="visible" style="display: block;" width="123.5" height="120.167" viewBox="0 0 123.5 120.167" fill="none" xmlns="http://www.w3.org/2000/svg">
<g id="Decorative background accent" opacity="0.05">
<path id="Icon" d="M109.333 120.167L72.8333 83.6667L86.8333 69.6667L123.333 106.167L109.333 120.167V120.167M17.3333 120.167L3.33333 106.167L49.3333 60.1667L38 48.8333L33.3333 53.5L24.8333 45V58.6667L20.1667 63.3333L0 43.1667L4.66667 38.5H18.3333L10 30.1667L33.6667 6.5C35.8889 4.27778 38.2778 2.66667 40.8333 1.66667C43.3889 0.666667 46 0.166667 48.6667 0.166667C51.3333 0.166667 53.9444 0.666667 56.5 1.66667C59.0556 2.66667 61.4444 4.27778 63.6667 6.5L48.3333 21.8333L56.6667 30.1667L52 34.8333L63.3333 46.1667L78.3333 31.1667C77.8889 29.9444 77.5278 28.6667 77.25 27.3333C76.9722 26 76.8333 24.6667 76.8333 23.3333C76.8333 16.7778 79.0833 11.25 83.5833 6.75C88.0833 2.25 93.6111 0 100.167 0C101.833 0 103.417 0.166667 104.917 0.5C106.417 0.833333 107.944 1.33333 109.5 2L93 18.5L105 30.5L121.5 14C122.278 15.5556 122.806 17.0833 123.083 18.5833C123.361 20.0833 123.5 21.6667 123.5 23.3333C123.5 29.8889 121.25 35.4167 116.75 39.9167C112.25 44.4167 106.722 46.6667 100.167 46.6667C98.8333 46.6667 97.5 46.5556 96.1667 46.3333C94.8333 46.1111 93.5556 45.7222 92.3333 45.1667L17.3333 120.167V120.167" fill="#1A1C1C"/>
</g>
</svg>
